<svg height="407pt" viewBox="-46 0 407 407.95136" width="407pt" xmlns="http://www.w3.org/2000/svg"><path d="m212.132812 338.382812c1.871094-2.785156 3.875-5.527343 6.054688-8.191406 13.207031-16.117187 41.636719-54.699218 53.425781-100.421875.144531-.335937.269531-.679687.359375-1.035156 2.582032-10.289063 4.132813-20.445313 4.683594-30.363281.03125-.570313.0625-1.148438.089844-1.722656.035156-.769532.066406-1.539063.085937-2.304688.042969-1.367188.0625-2.738281.066407-4.109375 0-.128906.003906-.253906.003906-.382813-.046875-24.601562-6.664063-49.933593-24.015625-74.003906h-.007813c-7.632812-10.585937-17.914062-20.136718-31.425781-29.195312-7.585937-5.085938-17.398437-13.617188-21.019531-25.375-3.257813-10.582032 1.960937-22.515625 12.695312-29.023438 8.820313-5.34375 14.300782-15.089844 14.300782-25.425781 0-3.773437-3.054688-6.828125-6.828126-6.828125h-136.535156c-3.773437 0-6.824218 3.054688-6.824218 6.828125 0 10.335937 5.480468 20.082031 14.300781 25.425781 10.730469 6.503906 15.953125 18.4375 12.6875 29.023438-3.621094 11.757812-13.429688 20.289062-21.015625 25.375-13.503906 9.050781-23.785156 18.601562-31.433594 29.199218-17.554688 24.34375-24.117188 49.980469-24.007812 74.851563 0 .171875.003906.347656.003906.523437.011718 1.375.042968 2.746094.09375 4.117188.019531.550781.035156 1.101562.0625 1.65625.035156.734375.085937 1.464844.132812 2.195312.617188 10.09375 2.257813 20.429688 4.972656 30.890626.09375.375.226563.726562.382813 1.070312 12 45.117188 39.988281 83.082031 53.0625 99.035156 2.292969 2.800782 4.40625 5.691406 6.363281 8.636719-92.359375 4.421875-92.371094 14.671875-92.371094 20.863281v25.894532c0 8.167968 7.984376 13.417968 50.113282 17.777343 28.59375 2.957031 66.558594 4.589844 106.898437 4.589844 40.347657 0 78.308594-1.632813 106.90625-4.589844 42.128907-4.359375 50.113281-9.609375 50.113281-17.777343v-25.894532c0-6.105468-.019531-17.328125-102.375-21.308594zm36.5-119.171874-3.558593-1.6875c-9.515625-4.503907-20.847657-4.492188-30.332031 0l-11.027344 5.21875c-5.328125 2.523437-11.566406 2.757812-17.082032.667968l-20.007812-7.574218c-8.984375-3.394532-19.097656-3.003907-27.753906 1.097656l-12.269532 5.808594c-5.335937 2.527343-11.574218 2.765624-17.082031.667968l-18.046875-6.832031c-4.058594-1.535156-8.332031-2.296875-12.585937-2.296875-6.605469 0-13.171875 1.832031-18.839844 5.40625-4.292969 2.710938-9.570313 3.761719-14.652344 3.039062-2.074219-8.90625-3.429687-18.054687-3.800781-27.316406 8.761719 1.726563 18.035156.128906 25.746094-4.734375 5.691406-3.601562 12.90625-4.304687 19.292968-1.886719l18.046876 6.832032c8.988281 3.40625 19.097656 3.007812 27.761718-1.097656l12.273438-5.808594c5.324218-2.515625 11.550781-2.761719 17.070312-.671875l20.007813 7.578125c8.996093 3.40625 19.101562 3.007812 27.761719-1.097656l11.027343-5.222657c5.832031-2.761719 12.804688-2.769531 18.652344 0l3.5625 1.6875c6.386719 3.03125 13.449219 4.015625 20.324219 2.984375-.269532 9.207032-1.519532 18.3125-3.492188 27.183594-3.785156.308594-7.59375-.335938-10.996094-1.945312zm-185.777343-95.371094c6.679687-9.261719 15.824219-17.714844 27.960937-25.847656 9.425782-6.316407 21.664063-17.117188 26.464844-32.695313 5.105469-16.574219-2.566406-34.960937-18.660156-44.71875-2.78125-1.683594-4.921875-4.097656-6.234375-6.925781h119.894531c-1.3125 2.824218-3.453125 5.238281-6.234375 6.925781-16.09375 9.753906-23.765625 28.140625-18.664063 44.71875 4.804688 15.578125 17.042969 26.378906 26.472657 32.695313 12.140625 8.140624 21.285156 16.597656 27.960937 25.84375h-.007812c13.117187 18.191406 19.355468 37.324218 20.945312 56.289062-4.730468 1.070312-9.761718.589844-14.117187-1.476562l-3.5625-1.6875c-9.511719-4.503907-20.847657-4.488282-30.332031 0l-11.027344 5.222656c-5.324219 2.523437-11.566406 2.761718-17.078125.671875l-20.007813-7.578125c-8.980468-3.398438-19.101562-3-27.753906 1.097656l-12.273438 5.808594c-5.332031 2.527344-11.574218 2.765625-17.082031.671875l-18.042969-6.832031c-10.359374-3.925782-22.113281-2.765626-31.429687 3.109374-5.4375 3.433594-12.152344 4.1875-18.226563 2.230469 1.421876-19.375 7.628907-38.9375 21.035157-57.523437zm-13.609375 112.785156c6.367187-.109375 12.617187-1.929688 18.09375-5.390625 5.695312-3.601563 12.90625-4.300781 19.296875-1.890625l18.042969 6.832031c4.042968 1.535157 8.316406 2.296875 12.589843 2.296875 5.207031 0 10.40625-1.136718 15.171875-3.386718l12.273438-5.8125c5.328125-2.523438 11.554687-2.769532 17.074218-.667969l20.007813 7.574219c8.957031 3.394531 19.070313 3.003906 27.757813-1.09375l11.027343-5.222657c5.835938-2.761719 12.808594-2.769531 18.65625 0l3.558594 1.6875c4.136719 1.960938 8.632813 3.03125 13.203125 3.257813-12.175781 39.394531-36.679688 72.464844-48.371094 86.730468-5.539062 6.761719-10.238281 13.941407-13.972656 21.347657-9.375 7.199219-73.269531 7.199219-82.640625 0-3.746094-7.425781-8.445313-14.609375-13.976563-21.347657-11.511718-14.046874-35.4375-46.320312-47.792968-84.914062zm51.761718 115.5c8.035157 7.929688 31.8125 9.6875 51.324219 9.6875 19.816407 0 44.015625-1.820312 51.675781-10.0625 45.375 1.535156 73.816407 4.96875 87.925782 7.976562-20.292969 4.316407-67.898438 8.675782-134.445313 8.675782-66.601562 0-114.234375-4.363282-134.488281-8.683594 12.917969-2.773438 38.03125-5.902344 78.007812-7.59375zm56.480469 42.175781c-80.082031 0-132.742187-6.3125-143.359375-11.269531v-11.53125c7.59375 2.234375 19.136719 4.179688 36.457032 5.96875 28.585937 2.957031 66.554687 4.585938 106.902343 4.585938 40.347657 0 78.3125-1.628907 106.90625-4.585938 17.324219-1.792969 28.863281-3.734375 36.460938-5.96875v11.53125c-10.621094 4.957031-63.28125 11.269531-143.367188 11.269531zm0 0"/></svg>