<?xml version="1.0" encoding="iso-8859-1"?>
<!-- Uploaded to: SVG Repo, www.svgrepo.com, Generator: SVG Repo Mixer Tools -->
<svg fill="#000000" height="800px" width="800px" version="1.1" id="Layer_1" xmlns="http://www.w3.org/2000/svg" xmlns:xlink="http://www.w3.org/1999/xlink" 
	 viewBox="0 0 512 512" xml:space="preserve">
<g>
	<g>
		<path d="M510.582,449.955l-24.416-37.124c-2.006-3.05-2.81-6.719-2.265-10.328l16.75-110.87
			c1.976-13.082-0.828-26.446-7.896-37.629l-59.325-93.873c-4.004-6.338-10.239-10.728-17.556-12.362
			c-7.313-1.631-14.825-0.312-21.147,3.719c-12.422,7.925-16.569,24.234-9.439,37.13l40.158,72.636
			c2.161,3.908,2.941,8.485,2.194,12.889l-12.09,71.379c-0.557,3.289-3.59,5.63-6.919,5.33c-1.797-0.163-3.396-1.037-4.501-2.464
			c-1.106-1.425-1.555-3.191-1.266-4.971l6.568-40.418c1.978-12.179-5.057-23.927-16.728-27.931
			c-6.888-2.364-14.457-1.64-20.771,1.985c-6.312,3.624-10.754,9.797-12.184,16.935l-15.445,77.047
			c-0.837,4.177-1.303,8.457-1.381,12.722c-0.352,19.13,9.622,37.531,26.028,48.02c14.57,9.315,27.063,22.023,36.127,36.752
			l13.572,22.055c1.628,2.644,4.453,4.101,7.346,4.101c1.54,0,3.099-0.412,4.507-1.28c4.051-2.494,5.316-7.801,2.822-11.852
			l-13.572-22.055c-10.419-16.928-24.776-31.534-41.52-42.238c-11.396-7.285-18.324-20.002-18.081-33.187
			c0.06-3.235,0.41-6.481,1.046-9.649l15.445-77.049c0.461-2.3,1.837-4.211,3.87-5.379c2.035-1.168,4.379-1.392,6.598-0.631
			c3.708,1.272,5.941,5.004,5.313,8.872l-6.568,40.416c-1.049,6.457,0.648,13.125,4.658,18.294
			c4.01,5.169,10.045,8.473,16.561,9.064c12.243,1.112,23.412-7.507,25.463-19.611l12.09-71.379
			c1.396-8.235-0.062-16.796-4.103-24.104l-40.158-72.635c-2.74-4.954-1.146-11.221,3.628-14.267
			c2.427-1.55,5.314-2.057,8.125-1.429c2.811,0.627,5.207,2.315,6.746,4.75l59.325,93.873c4.855,7.682,6.781,16.863,5.424,25.849
			l-16.75,110.87c-1.18,7.818,0.562,15.762,4.906,22.368l24.416,37.124c2.614,3.974,7.958,5.078,11.932,2.464
			C512.093,459.273,513.196,453.931,510.582,449.955z"/>
	</g>
</g>
<g>
	<g>
		<path d="M169.078,383.759c-0.078-4.259-0.543-8.538-1.381-12.721l-15.449-77.047c-1.43-7.138-5.872-13.31-12.185-16.935
			c-6.311-3.623-13.882-4.348-20.768-1.985c-11.672,4.004-18.706,15.752-16.728,27.932l6.568,40.416
			c0.289,1.78-0.16,3.545-1.266,4.97c-1.105,1.426-2.704,2.301-4.501,2.464c-3.319,0.299-6.363-2.04-6.92-5.33l-12.09-71.379
			c-0.745-4.403,0.033-8.98,2.194-12.889l40.158-72.635c7.13-12.896,2.984-29.205-9.438-37.13c-6.32-4.032-13.83-5.353-21.147-3.719
			c-7.316,1.633-13.552,6.024-17.558,12.361l-59.325,93.874c-7.068,11.185-9.872,24.548-7.895,37.627l16.749,110.87
			c0.547,3.609-0.258,7.276-2.265,10.327L1.417,449.955c-2.613,3.976-1.51,9.317,2.465,11.931c3.976,2.616,9.317,1.512,11.932-2.464
			l24.415-37.125c4.344-6.607,6.087-14.552,4.906-22.368l-16.749-110.87c-1.359-8.986,0.567-18.166,5.423-25.849l59.325-93.873
			c1.539-2.435,3.935-4.123,6.747-4.75c2.811-0.627,5.697-0.121,8.125,1.429c4.773,3.045,6.366,9.311,3.626,14.267L71.476,252.92
			c-4.041,7.309-5.498,15.869-4.103,24.103l12.09,71.38c2.05,12.105,13.244,20.723,25.463,19.611
			c6.516-0.59,12.553-3.894,16.562-9.064c4.009-5.17,5.707-11.837,4.658-18.294l-6.568-40.416c-0.63-3.869,1.605-7.6,5.313-8.872
			c2.219-0.762,4.561-0.538,6.596,0.631s3.41,3.078,3.871,5.379l15.446,77.048c0.635,3.173,0.988,6.419,1.046,9.649
			c0.241,13.186-6.686,25.902-18.081,33.187c-16.747,10.706-31.104,25.312-41.52,42.238l-13.572,22.055
			c-2.494,4.051-1.229,9.358,2.822,11.852c1.408,0.866,2.967,1.28,4.507,1.28c2.892,0,5.718-1.456,7.346-4.101l13.572-22.055
			c9.063-14.728,21.556-27.436,36.127-36.752C159.454,421.29,169.428,402.89,169.078,383.759z"/>
	</g>
</g>
<g>
	<g>
		<path d="M286.906,46.131c-17.8-17.54-36.322-27.41-37.102-27.821c-2.67-1.408-5.88-1.318-8.47,0.241
			c-2.586,1.559-4.166,4.358-4.166,7.378c0,31.705-11.288,42.268-23.238,53.45c-10.423,9.753-22.237,20.81-21.697,44.61
			c0.48,21.197,13.973,38.527,36.09,46.357c1.567,0.555,3.176,0.824,4.766,0.824c4.032,0,7.939-1.73,10.705-4.921
			c3.886-4.481,4.621-10.769,1.875-16.016c-6.675-12.752-5.781-23.832,2.788-33.593c2.967,7.307,7.407,12.561,11.255,17.114
			c4.872,5.766,7.415,9.007,7.415,14.006c0,1.775-0.107,3.456-0.315,4.997c-0.703,5.175,1.485,10.311,5.712,13.402
			c4.239,3.101,9.819,3.631,14.562,1.382c18.434-8.751,29.857-24.282,32.163-43.73C322.432,96.979,311.248,70.118,286.906,46.131z
			 M302.137,121.78c-1.695,14.292-9.851,22.753-17.805,27.675c0.016-0.561,0.024-1.125,0.024-1.694
			c0-11.536-6.102-18.757-11.485-25.127c-5.355-6.337-9.981-11.811-10.495-22.233c-0.154-3.106-1.969-5.887-4.75-7.279
			c-2.782-1.393-6.096-1.176-8.673,0.562c-22.174,14.955-29.847,35.562-21.749,57.393c-8.288-4.463-17.413-12.716-17.748-27.478
			c-0.365-16.095,6.603-22.615,16.245-31.638c11.004-10.298,24.326-22.761,27.822-51.02
			C272.353,53.992,306.692,83.392,302.137,121.78z"/>
	</g>
</g>
<g>
	<g>
		<path d="M365.659,195.933H264.615v-14.199c0-4.758-3.856-8.615-8.615-8.615c-4.759,0-8.615,3.857-8.615,8.615v14.199H146.341
			c-4.759,0-8.615,3.857-8.615,8.615c0,65.216,53.057,118.274,118.274,118.274s118.274-53.058,118.274-118.274
			C374.274,199.791,370.417,195.933,365.659,195.933z M256,305.592c-52.815,0-96.295-40.729-100.68-92.429h201.361
			C352.295,264.863,308.815,305.592,256,305.592z"/>
	</g>
</g>
</svg>